<?xml version="1.0"?>
<svg xmlns="http://www.w3.org/2000/svg" xmlns:xlink="http://www.w3.org/1999/xlink" height="320" width="320">
<defs>
<radialGradient id="a" gradientUnits="userSpaceOnUse" cy="143" cx="127" r="152">
<stop stop-color="#fe3" offset="0"/>
<stop stop-color="#f80" offset="1"/>
</radialGradient>
<radialGradient id="d" xlink:href="#a" gradientUnits="userSpaceOnUse" cy="342.9" cx="4.86" gradientTransform="matrix(12.37 0 0 4.731 1.15 -1342)" r="7.62"/>
<radialGradient id="c" xlink:href="#a" gradientUnits="userSpaceOnUse" cy="143" cx="127" r="152"/>
</defs>
<g stroke-linejoin="round" stroke-linecap="round">
<path stroke="#850" stroke-width="5" d="m2.681 320c77.63-135.5 181.4-2.9 188 0" fill="url(#d)"/>
<g>
<path d="m136.7 76.77c-28.6 17.42-57.9 39.93-77.98 64.03-17.85 21.7-30.27 49.3-20.62 75.3 6.92 17.3 23.04 31.1 39.37 43 13.97 9.7 31.13 15.3 48.33 20-16.4 10.2-56.15 14.1-72.88-1.8-22.73-21.7-39.65-48.6-41.45-77.3-1.9-30.6 18.41-59.1 45.64-79.3 20.81-14.9 46.29-31.39 69.99-42.95" stroke="#520" stroke-width="6" fill="#520"/>
<g transform="matrix(1.025 0 0 1.025 -0.07 -0.08)" stroke="#483" stroke-width="4.1" fill="#483">
<path d="m128.1 57.55c.2-.76.6-1.2.7-1.71 2.3-3.49 4.7-6.92 7.7-10.22 2.6-2.86 5.5-5.65 8.7-8.63 3.3-2.67 6.6-5.08 9.8-6.98 5.4-3.23 10.9-5.64 16.6-6.91 7.6-2.15 15.8-2.52 24.3-1.18-3.7 1.77-7 3.36-10.1 4.75-6.1 2.79-10.6 4.63-13.6 5.77l6.9 6.04c-.6.38-1.5.70-2.7.95-.9.32-1.8.63-2.9.89-4.9 1.2-9.5 1.39-14.2.75l10.8 8.64-18.8-.39.5 4.19-23.7 4.04z"/>
<path d="m120.1 60.79c0-.58-.3-1.02-.4-1.61-.6-3.94-1.6-7.96-3.3-12.15-1.4-3.74-3.2-7.57-5.2-11.26s-4.2-7.24-6.7-10.29c-3.7-4.82-8.07-8.86-12.99-12.27-6.48-4.903-14.09-8.165-22.39-10.06 2.75 2.905 5.15 5.732 7.48 7.98 4.59 4.85 8.34 8.36 10.9 10.47l-8.88 3.1c.42.66 1.42 1.27 2.2 2.02.86.39 1.64 1.13 2.56 2.1 4.14 2.66 8.45 4.6 13.36 5.53l-13.48 4.14 17.84 6.74-2.14 3.5 21.14 12.06z"/>
<path d="m126.7 68.4 10.8-3.67c8.6-2.88 16.7-4.45 24.6-5.23 25.6-2.36 42.9 5.23 51.8 23.04-3.4.53-7 1.05-11.2 1.05-8.4 0-14.4-1.57-18.4-4.71v8.38c-6-3.67-11-7.6-15.1-12.05l-1.4 12.05-18.8-12.05-22.3-6.81z"/>
<path d="m103.2 74.69c-12.88-5.77-26.76-9.17-41.68-9.96-29.86-1.31-49.24 10.22-58.66 34.83l32.21-15.45.78 13.62 22-14.66-6.28 19.13c14.14-6.04 22.26-11.28 24.09-15.73l4.71 3.93 5.76-7.33 17.07-8.38z"/>
<path d="m111.9 68.94c-4.7-10.61-11.91-20.2-21.63-28.51-19.13-16.37-41.16-18.54-65.75-5.74l29.98 8.53-9.9 6.7 27.13 3.28c-1.42 1.71-3.07 3.7-5.3 5.22-2.68 2.35-3.08 3.71-.68 4.01 9.17-.32 14.63-1.09 16.35-2.3l.75 5.19 29.05 3.62z"/>
<path d="m121.5 79.27 11 6.81c8.7 6.02 15.7 12.55 21.5 19.32 18.3 22 19.4 44 3.4 66.3-.3-8.1-1.1-14.9-2.4-20.2l-9.7 6.3.6-24.6-6.1 9.7c-.2-10.8-1.5-18.6-4.4-23.6l-10.5 16.2c.8-6.2 1.3-13.3 1.6-21.2.2-15.67-1.6-27.43-5-35.03z"/>
</g>
<g fill="none" stroke="#fd3">
<path d="m91.71 97.77 8.07 4.33-28.41 10 10.12 4.9-30.99 9.2 15.39 5.8-31.98 10.9 17.34 6.1-30.4 12.5 20.34 6.6-28.91 16.2 22.7 3.3-23.23 17.1 23.14 1.3-17.4 19.9 25.41.2-15.62 19.8c15 1.1 25.19.7 32.53-.7l-17.02 21.4c11.44.7 28.13.9 42.5-2.5l-22.48 19.4" stroke-width="3.6"/>
<path d="m91.62 97.05 26.88-8.29" stroke-width="3"/>
</g>
</g>
<g stroke="#520" stroke-width="4" fill="#850">
<circle r="8.9" cy="61.4" cx="127"/>
<circle r="8.9" cy="78.94" cx="132.2"/>
<circle r="8.9" cy="75.8" cx="113.3"/>
</g>
</g>
<g transform="matrix(0.763 0.09 -0.09 0.763 93.3 65.5)">
<circle stroke-width="6.5" stroke="#850" cy="160" cx="160" r="151" fill="url(#c)"/>
<g id="b">
<circle stroke-width="5.47" stroke="#850" cy="132" cx="186" r="34" fill="#fff"/>
<circle cy="142" cx="180" r="20.5"/>
</g>
<path d="m51 193c50 57 106 71 174 8" stroke="#520" stroke-linecap="round" stroke-width="13" fill="none"/>
<use xlink:href="#b" transform="matrix(-1 0 0 1 279 0)"/>
</g>
</svg>
